<mxfile host="app.diagrams.net" modified="2021-09-24T04:24:48.299Z" agent="5.0 (Windows NT 10.0; Win64; x64) AppleWebKit/537.36 (KHTML, like Gecko) Chrome/93.0.4577.82 Safari/537.36" etag="WWeYUkw82uKhiX98qYd8" version="15.3.1" type="github">
  <diagram id="s-VH7t6hmXF-htG3DJqw" name="Page-1">
    <mxGraphModel dx="1422" dy="762" grid="1" gridSize="10" guides="1" tooltips="1" connect="1" arrows="1" fold="1" page="1" pageScale="1" pageWidth="850" pageHeight="1100" math="0" shadow="0">
      <root>
        <mxCell id="0" />
        <mxCell id="1" parent="0" />
        <mxCell id="ahxeI9YDzkbvg_vicdjr-1" value="Actor" style="shape=umlActor;verticalLabelPosition=bottom;verticalAlign=top;html=1;outlineConnect=0;overflow=visible;" vertex="1" parent="1">
          <mxGeometry x="140" y="210" width="40" height="80" as="geometry" />
        </mxCell>
        <mxCell id="ahxeI9YDzkbvg_vicdjr-3" value="Actor" style="shape=umlActor;verticalLabelPosition=bottom;verticalAlign=top;html=1;outlineConnect=0;overflow=visible;" vertex="1" parent="1">
          <mxGeometry x="140" y="340" width="40" height="80" as="geometry" />
        </mxCell>
        <mxCell id="ahxeI9YDzkbvg_vicdjr-4" value="Actor" style="shape=umlActor;verticalLabelPosition=bottom;verticalAlign=top;html=1;outlineConnect=0;overflow=visible;" vertex="1" parent="1">
          <mxGeometry x="600" y="280" width="40" height="80" as="geometry" />
        </mxCell>
        <mxCell id="ahxeI9YDzkbvg_vicdjr-10" value="«interface»&lt;br&gt;&lt;span&gt;Name&lt;/span&gt;" style="html=1;fontStyle=0" vertex="1" parent="1">
          <mxGeometry x="320" y="310" width="110" height="50" as="geometry" />
        </mxCell>
      </root>
    </mxGraphModel>
  </diagram>
</mxfile>
